<?xml version="1.0" encoding="UTF-8"?>
<svg version="1.1" xmlns="http://www.w3.org/2000/svg" width="1080" height="1350">
<path d="M0 0 C356.4 0 712.8 0 1080 0 C1080 445.5 1080 891 1080 1350 C723.6 1350 367.2 1350 0 1350 C0 904.5 0 459 0 0 Z " fill="#FEFEFE" transform="translate(0,0)"/>
<path d="M0 0 C0.66 0 1.32 0 2 0 C4.98886561 6.15261166 7.11865191 12.3806996 9.0625 18.93359375 C9.81166764 21.38399623 10.6237959 23.74401616 11.5625 26.125 C22.99322925 55.60184789 22.66745662 95.27835131 15.51269531 125.74560547 C15.01846434 127.91880964 14.61358605 130.08797059 14.2421875 132.28515625 C13.0120181 139.3480254 11.19290224 145.5557058 8.2578125 152.09375 C6.96305888 155.08535463 5.93269704 158.08436591 4.9375 161.1875 C3.05525835 167.0102069 0.73505945 172.5298811 -2 178 C-2.66 178 -3.32 178 -4 178 C-4.17305664 179.10686157 -4.17305664 179.10686157 -4.34960938 180.23608398 C-5.00820886 183.03488456 -5.87474369 184.81019747 -7.40625 187.22265625 C-7.89794678 188.0022168 -8.38964355 188.78177734 -8.89624023 189.58496094 C-9.42548096 190.40254883 -9.95472168 191.22013672 -10.5 192.0625 C-11.045354 192.91231445 -11.59070801 193.76212891 -12.15258789 194.63769531 C-25.54784798 215.3232004 -41.65803126 233.89054859 -61.35839844 248.75537109 C-62.78545293 249.83733478 -64.19514778 250.942121 -65.6015625 252.05078125 C-79.30468034 262.55650493 -95.01040028 270.60416011 -111 277 C-112.11632812 277.45890625 -113.23265625 277.9178125 -114.3828125 278.390625 C-129.8938654 284.59504616 -145.5256539 287.62086721 -162 290 C-163.23838623 290.17942139 -164.47677246 290.35884277 -165.75268555 290.54370117 C-170.33789015 291.10562938 -174.88145849 291.14405972 -179.49609375 291.1328125 C-180.37024429 291.13376923 -181.24439484 291.13472595 -182.14503479 291.13571167 C-183.97616651 291.13638766 -185.80730071 291.13457426 -187.63842773 291.13037109 C-190.4536669 291.12496898 -193.26874981 291.13035885 -196.08398438 291.13671875 C-197.86718785 291.13605875 -199.65039123 291.13477922 -201.43359375 291.1328125 C-202.2782872 291.13483673 -203.12298065 291.13686096 -203.99327087 291.13894653 C-209.88501907 291.11498093 -209.88501907 291.11498093 -211 290 C-213.4170586 289.6693079 -215.82522215 289.3851443 -218.25 289.125 C-225.65510032 288.26020684 -232.77280446 286.85223934 -240 285 C-241.16917969 284.72414063 -242.33835937 284.44828125 -243.54296875 284.1640625 C-276.59969044 276.01309003 -314.65069673 255.22143 -336.171875 228.28125 C-337.79726138 225.92707759 -337.79726138 225.92707759 -340 225 C-339.37322271 221.13706798 -338.18724393 217.93822692 -336.578125 214.37890625 C-334.12966206 208.59507311 -332.67366802 203.13677299 -331.75 196.9375 C-331.58725586 195.88127441 -331.42451172 194.82504883 -331.25683594 193.73681641 C-328.81023495 175.65859534 -329.14591455 157.21164567 -329 139 C-325.94692076 137.71151283 -322.89341967 136.42402834 -319.83984375 135.13671875 C-318.97919312 134.77348511 -318.11854248 134.41025146 -317.23181152 134.03601074 C-312.27000689 131.94488799 -307.2967886 129.89306079 -302.2890625 127.9140625 C-298.64514634 126.45898335 -295.0301557 124.93526832 -291.41015625 123.421875 C-282.90017963 119.87361442 -274.38686601 116.32769414 -265.8125 112.9375 C-261.9037888 111.38726539 -258.04622359 109.7332001 -254.1875 108.0625 C-235.82659388 100.16490501 -235.82659388 100.16490501 -229 99 C-228.875 101.375 -228.875 101.375 -229 104 C-229.66 104.66 -230.32 105.32 -231 106 C-231.69224335 108.26504745 -231.69224335 108.26504745 -232.18359375 110.91015625 C-232.38919922 111.90080078 -232.59480469 112.89144531 -232.80664062 113.91210938 C-233.01482422 114.95173828 -233.22300781 115.99136719 -233.4375 117.0625 C-234.72940968 123.46499243 -236.09635382 129.68116353 -238.26147461 135.84887695 C-239.52831922 139.53884979 -240.53357964 143.30061137 -241.5625 147.0625 C-241.77068359 147.81337891 -241.97886719 148.56425781 -242.19335938 149.33789062 C-243.16032929 152.84505111 -244.09261269 156.35391474 -244.9453125 159.890625 C-245.94064518 163.91812328 -247.16933805 167.85913933 -248.41162109 171.81640625 C-251.18280727 180.64815405 -253.7387896 189.49216519 -255.875 198.5 C-256.17917847 199.77943481 -256.17917847 199.77943481 -256.48950195 201.0847168 C-257.55780502 205.70910772 -258.40505772 210.29109513 -259 215 C-244.16353194 215.90790327 -225.84094749 201.81120439 -215.13867188 192.35546875 C-204.80681509 182.9224734 -197.07793849 173.00100659 -190 161 C-188.8299761 159.05747759 -187.65798216 157.11614088 -186.484375 155.17578125 C-183.91995243 150.92653839 -181.36908962 146.66955956 -178.828125 142.40625 C-175.23082712 136.37559288 -171.59337729 130.37028921 -167.9375 124.375 C-167.07415039 122.95876343 -167.07415039 122.95876343 -166.19335938 121.51391602 C-165.03604329 119.61606701 -163.87849235 117.71836119 -162.72070312 115.82080078 C-160.44586077 112.09158277 -158.1737474 108.36070779 -155.90234375 104.62939453 C-154.76213206 102.75642151 -153.62150919 100.88369872 -152.48046875 99.01123047 C-149.53487962 94.17522549 -146.59622021 89.33517441 -143.67033386 84.48722839 C-142.13659178 81.94627328 -140.60085391 79.40652667 -139.06509399 76.86679077 C-138.32283362 75.63793994 -137.5815752 74.40848325 -136.84140015 73.17837524 C-135.15605198 70.3776715 -133.45782573 67.58725371 -131.72998047 64.8125 C-130.7224574 63.17452854 -129.74564341 61.51530518 -128.85205078 59.8125 C-125.80728218 54.48379607 -121.31917615 53.21408266 -115.6875 51.2734375 C-111.84845026 49.94766397 -108.13941186 48.43667258 -104.40625 46.84375 C-103.09510639 46.29023593 -101.78390802 45.73685154 -100.47265625 45.18359375 C-99.14833435 44.62263929 -97.82411583 44.06144072 -96.5 43.5 C-87.05959664 39.49715772 -77.59841039 35.61423719 -68 32 C-66.77023437 31.5359375 -65.54046875 31.071875 -64.2734375 30.59375 C-63.31695313 30.2328125 -62.36046875 29.871875 -61.375 29.5 C-56.35267018 27.57205389 -51.46950714 25.43708868 -46.58984375 23.17578125 C-43.40829181 21.73136627 -40.18103489 20.44174854 -36.9296875 19.1640625 C-32.35528981 17.34650182 -27.80964537 15.45926313 -23.26391602 13.57128906 C-19.30429239 11.93075373 -15.32984221 10.37010769 -11.3125 8.875 C-6.69453321 7.04672646 -2.30112128 4.60224256 0 0 Z " fill="#FEDA46" transform="translate(799,593)"/>
<path d="M0 0 C1.53720703 0.46019531 1.53720703 0.46019531 3.10546875 0.9296875 C11.92076436 3.61829318 19.88784475 7.69544194 28 12 C28.74121094 12.38994141 29.48242188 12.77988281 30.24609375 13.18164062 C40.74979092 18.73872486 50.54790518 24.79783707 60 32 C60.87914062 32.66644531 61.75828125 33.33289063 62.6640625 34.01953125 C69.44837425 39.30698692 75.74768817 45.10273635 82 51 C82.74507812 51.70253906 83.49015625 52.40507813 84.2578125 53.12890625 C93.44852922 62.04930777 100.66149387 72.56368186 108 83 C107.34 83.33 106.68 83.66 106 84 C103.42578125 82.671875 103.42578125 82.671875 100.3125 80.75 C95.91422447 78.11417257 91.80259116 75.77873747 87 74 C86.35933594 73.72285156 85.71867187 73.44570313 85.05859375 73.16015625 C72.629046 68.46935301 53.49745704 69.29301534 41.2578125 74.0703125 C39.45258538 74.90228674 37.65936008 75.76078342 35.87890625 76.64453125 C32.64645462 78.16645895 29.37699763 79.33513792 26 80.5 C21.76855611 81.97320335 17.67973313 83.53189719 13.625 85.4375 C8.50478021 87.84302299 3.27842164 89.814672 -2.0246582 91.76928711 C-7.04046518 93.62340692 -11.97849921 95.62117 -16.90625 97.69921875 C-20.61624605 99.25910345 -24.33466796 100.7957906 -28.0625 102.3125 C-28.70646729 102.57933594 -29.35043457 102.84617187 -30.01391602 103.12109375 C-32.8488709 104.26851258 -34.90891235 105 -38 105 C-38 105.66 -38 106.32 -38 107 C-38.78503906 107.25394531 -39.57007813 107.50789062 -40.37890625 107.76953125 C-47.31247823 110.01680847 -47.31247823 110.01680847 -54.0625 112.75 C-57 114 -57 114 -60 114 C-60 114.66 -60 115.32 -60 116 C-61.00675781 116.3403125 -62.01351562 116.680625 -63.05078125 117.03125 C-72.86043912 120.39550496 -82.42478724 124.17406261 -91.953125 128.265625 C-92.65888672 128.56791016 -93.36464844 128.87019531 -94.09179688 129.18164062 C-95.68196834 129.86360771 -97.27083661 130.54861252 -98.859375 131.234375 C-101 132 -101 132 -104 132 C-104 132.66 -104 133.32 -104 134 C-105.05316406 134.35191406 -106.10632813 134.70382812 -107.19140625 135.06640625 C-114.53497139 137.56457339 -121.70170236 140.17808782 -128.6875 143.5625 C-134.38613666 146.31865464 -140.13748772 148.55848553 -146.12109375 150.62109375 C-156.79753662 154.35148531 -167.4422634 158.49884738 -177.4453125 163.78515625 C-181.59354589 165.75778711 -185.91571628 167.26005577 -190.23022461 168.82714844 C-193.87262793 170.16148989 -197.37478686 171.57671383 -200.8125 173.375 C-204 175 -204 175 -207 175 C-207.01030746 173.84599197 -207.02061493 172.69198395 -207.03123474 171.50300598 C-207.12897737 160.62927989 -207.23171234 149.75561092 -207.33933926 138.88197803 C-207.3945111 133.29169988 -207.44792196 127.70141643 -207.49731445 122.11108398 C-207.5450426 116.71644765 -207.5973885 111.32187409 -207.65294075 105.92731285 C-207.67332601 103.86884817 -207.69204536 101.81036629 -207.70907402 99.75187111 C-207.7332028 96.86942965 -207.76324579 93.98710611 -207.79467773 91.10473633 C-207.8004332 90.25309402 -207.80618866 89.40145172 -207.81211853 88.52400208 C-207.86165646 84.52916585 -208.16475234 80.92078114 -209 77 C-208.505 76.505 -208.505 76.505 -208 76 C-207.97610746 73.81250492 -208.01130914 71.62432971 -208.0703125 69.4375 C-208.08122893 68.06903166 -208.08893273 66.70053465 -208.09375 65.33203125 C-208.10156056 63.17485279 -208.12411275 61.02451165 -208.20214844 58.86865234 C-208.60535878 46.95185342 -208.60535878 46.95185342 -204.63818359 42.12841797 C-201.8566327 39.85488741 -199.03240518 37.92020806 -196 36 C-194.44046047 34.72997033 -192.89550319 33.44151393 -191.375 32.125 C-178.65667313 22.00677482 -164.07155913 13.09769103 -149.05517578 6.8605957 C-147.50081392 6.2097136 -145.95653141 5.53469074 -144.41748047 4.84838867 C-136.45597892 1.37131113 -128.40070656 -1.0109533 -120 -3.1875 C-118.71076613 -3.53256348 -117.42170284 -3.87826492 -116.1328125 -4.22460938 C-78.47753411 -14.13895926 -36.88466084 -12.38576784 0 0 Z " fill="#FEDA46" transform="translate(677,481)"/>
<path d="M0 0 C0.79664063 0.59856812 0.79664063 0.59856812 1.609375 1.20922852 C2.31578125 1.73959717 3.0221875 2.26996582 3.75 2.81640625 C4.44609375 3.33920166 5.1421875 3.86199707 5.859375 4.40063477 C18.65749936 13.96273704 31.82054708 20.25516585 48 21 C48.78455566 21.03706055 49.56911133 21.07412109 50.37744141 21.11230469 C61.41560741 21.54483806 71.28949943 20.83556462 82 18 C83.6652744 17.65977938 85.33176024 17.32536902 87 17 C87.75965035 58.20226615 87.75965035 58.20226615 85.3125 73.875 C85.16393555 74.85001465 85.01537109 75.8250293 84.86230469 76.82958984 C83.75362422 83.02279608 81.72978605 88.52911681 79.18945312 94.27783203 C78.07706337 96.8236337 77.11264123 99.38149758 76.1875 102 C67.15109769 124.53700338 47.66110318 140.36609215 25.9375 149.75 C9.54094422 156.22175314 -6.43930205 159.5657135 -24 159.375 C-24.76424286 159.37034729 -25.52848572 159.36569458 -26.31588745 159.36090088 C-59.47260307 159.12500842 -86.56164053 151.35280358 -113 131 C-113.88429688 130.34773437 -114.76859375 129.69546875 -115.6796875 129.0234375 C-116.42476563 128.43820312 -117.16984375 127.85296875 -117.9375 127.25 C-118.56527344 126.76015625 -119.19304687 126.2703125 -119.83984375 125.765625 C-121 124 -121 124 -120.85546875 121.25390625 C-119.90496138 117.63850609 -118.72368471 114.16867591 -117.375 110.6875 C-117.11211182 109.99672363 -116.84922363 109.30594727 -116.57836914 108.59423828 C-114.33762258 102.75607137 -111.94181661 96.9849522 -109.53662109 91.21313477 C-107.29201986 85.79374278 -105.26660101 80.31968383 -103.33203125 74.78125 C-101.67537609 70.04126724 -99.92778297 65.33477183 -98.1875 60.625 C-97.87296875 59.77309082 -97.5584375 58.92118164 -97.234375 58.04345703 C-96.4901784 56.02875145 -95.74517799 54.0143428 -95 52 C-90.16211607 52 -89.7599691 52.78381962 -86.4375 56.0625 C-80.0780315 62.02685359 -73.21286205 66.94782326 -65 70 C-65 70.66 -65 71.32 -65 72 C-64.37351562 72.13277344 -63.74703125 72.26554688 -63.1015625 72.40234375 C-61.87566406 72.66724609 -61.87566406 72.66724609 -60.625 72.9375 C-59.81289063 73.11152344 -59.00078125 73.28554688 -58.1640625 73.46484375 C-56 74 -56 74 -54 75 C-41.8764582 76.14596712 -29.16202995 76.20789906 -19.0078125 68.82421875 C-8.82207549 60.13797352 -5.13100331 50.39300994 -1 38 C-0.84586124 35.12561452 -0.74252715 32.27101014 -0.68359375 29.39453125 C-0.6524221 28.13572395 -0.6524221 28.13572395 -0.62062073 26.85148621 C-0.55525982 24.17190706 -0.49630286 21.49223031 -0.4375 18.8125 C-0.39430198 16.99543263 -0.35068727 15.17837512 -0.30664062 13.36132812 C-0.1995922 8.90765201 -0.09828681 4.45387774 0 0 Z " fill="#0EA5BF" transform="translate(383,716)"/>
<path d="M0 0 C28.71 0 57.42 0 87 0 C87.020625 11.446875 87.04125 22.89375 87.0625 34.6875 C87.071604 38.29647217 87.08070801 41.90544434 87.09008789 45.6237793 C87.09460449 50.04455566 87.09460449 50.04455566 87.09544373 52.11677551 C87.09697522 53.5582256 87.10048379 54.99967443 87.10557556 56.44111633 C87.11291714 58.62963066 87.11390525 60.81806696 87.11352539 63.0065918 C87.115746 64.23903122 87.11796661 65.47147064 87.12025452 66.74125671 C87.01376942 69.62686629 86.57038199 72.18335596 86 75 C86.33 75.33 86.66 75.66 87 76 C87.09523905 78.89143151 87.12553027 81.75892064 87.11352539 84.65063477 C87.11367142 85.55786285 87.11381744 86.46509094 87.1139679 87.39981079 C87.11326841 90.41369985 87.10547434 93.42752793 87.09765625 96.44140625 C87.0957922 98.52505967 87.09436824 100.60871354 87.09336853 102.69236755 C87.08954234 108.18823446 87.0797112 113.68407513 87.06866455 119.17993164 C87.0584526 124.78336227 87.05387137 130.38679713 87.04882812 135.99023438 C87.03808902 146.99350114 87.02101139 157.99674839 87 169 C84.60353485 170.1410395 82.20487296 171.27699097 79.8046875 172.41015625 C79.13010498 172.73197876 78.45552246 173.05380127 77.76049805 173.38537598 C66.88897128 178.50314223 53.6838332 180.25867379 41.90625 177.1953125 C38.84102935 175.9468378 35.94570411 174.51079438 33 173 C31.34896095 172.21584191 29.6950617 171.43769065 28.0390625 170.6640625 C23.34598074 168.47022682 18.66912282 166.24431909 14 164 C14 163.34 14 162.68 14 162 C13.175 161.9175 12.35 161.835 11.5 161.75 C8 161 8 161 0 157 C0 105.19 0 53.38 0 0 Z " fill="#0EA5BF" transform="translate(383,487)"/>
<path d="M0 0 C1.30646484 -0.00322266 2.61292969 -0.00644531 3.95898438 -0.00976562 C15.16231041 0.05163776 25.90056726 0.90402724 36.375 5.0625 C37.03975342 5.32272949 37.70450684 5.58295898 38.3894043 5.85107422 C44.03012634 8.08164118 49.59317532 10.49652023 55.15234375 12.921875 C59.84751696 14.90936806 64.62183779 16.64176005 69.4375 18.3125 C69.4375 18.9725 69.4375 19.6325 69.4375 20.3125 C70.11167969 20.41949219 70.78585937 20.52648437 71.48046875 20.63671875 C75.05622318 21.45389909 78.3645841 22.74293723 81.75 24.125 C82.41136963 24.39199707 83.07273926 24.65899414 83.75415039 24.93408203 C88.43721709 26.84687582 92.96661396 28.94019312 97.4375 31.3125 C97.4375 31.9725 97.4375 32.6325 97.4375 33.3125 C85.65364583 38.02604167 73.86979167 42.73958333 62.0859375 47.453125 C61.32522949 47.75758545 60.56452148 48.0620459 59.78076172 48.37573242 C58.1682952 49.02034943 56.55530903 49.66366759 54.94189453 50.3059082 C48.71653282 52.78682214 42.52259265 55.33717941 36.34375 57.93164062 C35.63476562 58.22619141 34.92578125 58.52074219 34.1953125 58.82421875 C33.25389404 59.21806763 33.25389404 59.21806763 32.29345703 59.61987305 C30.33117771 60.35217855 28.50673288 60.96956831 26.4375 61.3125 C24.1328125 59.86328125 24.1328125 59.86328125 21.5625 57.625 C20.59570312 56.79613281 19.62890625 55.96726562 18.6328125 55.11328125 C18.1162207 54.66033691 17.59962891 54.20739258 17.06738281 53.74072266 C14.80198854 51.75561832 12.51175782 49.80003624 10.22314453 47.84179688 C9.02724354 46.81757978 7.83291912 45.79151913 6.64013672 44.76367188 C3.03435554 41.65916052 -0.61351204 38.61867246 -4.3125 35.625 C-8.73112059 32.04215955 -12.94349324 28.27901014 -17.14453125 24.4453125 C-19.48785309 22.37834364 -21.89219343 20.45846138 -24.375 18.5625 C-31.20744268 13.29557261 -31.20744268 13.29557261 -33.5625 10.3125 C-33.5625 7.625 -33.5625 7.625 -32.5625 5.3125 C-23.46260551 -0.75409633 -10.49718437 -0.12985137 0 0 Z " fill="#FEFEFC" transform="translate(501.5625,551.6875)"/>
</svg>
